<svg xmlns="http://www.w3.org/2000/svg" version="1.1" xmlns:xlink="http://www.w3.org/1999/xlink" width="512" height="512" x="0" y="0" viewBox="0 0 60 60" style="enable-background:new 0 0 512 512" xml:space="preserve" class=""><g><g fill="#bcc7ce"><path d="M56 43v11a4 4 0 0 1-4 4H39v-4h12a1 1 0 0 0 1-1V43zM8 30v-9c0-8.822 7.178-16 16-16h12c8.822 0 16 7.178 16 16v9h4v-9C56 9.954 47.046 1 36 1H24C12.954 1 4 9.954 4 21v9z" fill="#bcc7ce" opacity="1" data-original="#bcc7ce"></path><path d="M12 24.68V18c0-1.1.9-2 2-2 .55 0 1.05.22 1.41.59.37.36.59.86.59 1.41v4zM44 23v-5c0-.55.22-1.05.59-1.41.36-.37.86-.59 1.41-.59 1.1 0 2 .9 2 2v6.68z" fill="#bcc7ce" opacity="1" data-original="#bcc7ce"></path></g><path fill="#dce4ea" d="M43 49H17a7 7 0 0 1-7-7H8V31h2c0-6.075 4.925-11 11-11h18c6.075 0 11 4.925 11 11h2v11h-2a7 7 0 0 1-7 7z" opacity="1" data-original="#dce4ea" class=""></path><path fill="#0a365e" d="M46 33.667V41a4 4 0 0 1-4 4H18a4 4 0 0 1-4-4v-7.333a9.332 9.332 0 0 1 6.133-8.772c1.487-.542 3.134-.203 4.433.703C25.553 26.287 27.242 27 30 27s4.447-.713 5.434-1.402c1.298-.906 2.945-1.245 4.433-.703A9.328 9.328 0 0 1 46 33.667z" opacity="1" data-original="#0a365e" class=""></path><ellipse cx="21.5" cy="35" fill="#10ddff" rx="2.5" ry="3" opacity="1" data-original="#10ddff"></ellipse><ellipse cx="38.5" cy="35" fill="#10ddff" rx="2.5" ry="3" opacity="1" data-original="#10ddff"></ellipse><path fill="#2473fe" d="M4 28h4a2 2 0 0 1 2 2v13a2 2 0 0 1-2 2H4c-1.656 0-3-1.344-3-3V31c0-1.656 1.344-3 3-3zM56 45h-4a2 2 0 0 1-2-2V30a2 2 0 0 1 2-2h4c1.656 0 3 1.344 3 3v11c0 1.656-1.344 3-3 3z" opacity="1" data-original="#2473fe" class=""></path><path fill="#0a365e" d="M32 53h8a1 1 0 0 1 1 1v4a1 1 0 0 1-1 1h-8a3.001 3.001 0 0 1 0-6z" opacity="1" data-original="#0a365e" class=""></path><path fill="#10ddff" d="M30 41c-1.475 0-2.474-.908-2.832-1.445a1 1 0 1 1 1.664-1.11c.007.009.409.555 1.168.555.764 0 1.164-.55 1.168-.555a1 1 0 1 1 1.664 1.11C32.474 40.092 31.475 41 30 41z" opacity="1" data-original="#10ddff"></path></g></svg>