<?xml version="1.0" encoding="UTF-8"?>
<svg xmlns="http://www.w3.org/2000/svg" version="1.1" viewBox="0 0 22 22">
  <defs>
    <style>
      .cls-1 {
        fill-rule: evenodd;
      }

      .cls-1, .cls-2 {
        fill: #4c6586;
        stroke: #4c6586;
        stroke-miterlimit: 10;
        stroke-width: .5px;
      }
    </style>
  </defs>
  <!-- Generator: Adobe Illustrator 28.7.1, SVG Export Plug-In . SVG Version: 1.2.0 Build 142)  -->
  <g>
    <g id="Capa_1">
      <path class="cls-2" d="M17.6,6.7c-.8,0-1.4.5-1.6,1.2h-3c-.3,0-.6.3-.6.6s.3.6.6.6h3c.2.7.9,1.2,1.6,1.2s1.8-.8,1.8-1.8-.8-1.8-1.8-1.8ZM17.6,9c-.3,0-.6-.3-.6-.6s.3-.6.6-.6.6.3.6.6-.3.6-.6.6Z"/>
      <path class="cls-2" d="M16,11.9l-.8-1c-.1-.1-.3-.2-.5-.2h-1.8c-.3,0-.6.3-.6.6s.3.6.6.6h1.5l.6.8c-.2.3-.3.6-.3,1,0,1,.8,1.8,1.8,1.8s1.8-.8,1.8-1.8-1.1-2-2.3-1.7h0ZM16.5,14.1c-.3,0-.6-.3-.6-.6s.3-.6.6-.6.6.3.6.6-.3.6-.6.6Z"/>
      <path class="cls-2" d="M14.2,15.8l-.6-1.9c-.1-.3-.4-.5-.7-.4-.3.1-.5.4-.4.7l.6,1.9c-.4.3-.7.8-.7,1.4,0,1,.8,1.8,1.8,1.8s1.8-.8,1.8-1.8-.8-1.7-1.7-1.7h0ZM14.1,18.1c-.3,0-.6-.3-.6-.6s.3-.6.6-.6.6.3.6.6-.3.6-.6.6Z"/>
      <path class="cls-2" d="M13,5.1c-.3,0-.6.3-.6.6s.3.6.6.6h.6c.2,0,.4-.1.5-.3l.4-.9c1.1.1,2-.7,2-1.7s-.8-1.8-1.8-1.8-1.8.8-1.8,1.8.2.9.5,1.2l-.3.5h-.2,0ZM14.7,2.8c.3,0,.6.3.6.6s-.3.6-.6.6-.6-.3-.6-.6.3-.6.6-.6Z"/>
      <path class="cls-1" d="M11.5,17.8c0-.3-.3-.5-.6-.4s-.6.3-.8.5l-2,1.4c-.2.1-.5,0-.4-.3.4-.9-.3-1.9-1.3-1.9h-.4c-1.3,0-2.3-1.1-2.3-2.3v-3.1c0-1.1,0-1.8,0-2.4,0-.6.1-1,.3-1.3.3-.6.8-1.1,1.4-1.4h0c.3-.2.7-.2,1.3-.3.6,0,1.4,0,2.4,0h1.9c.3,0,.5-.2.5-.5h0c0-.4-.3-.6-.6-.6h-1.8c-1,0-1.8,0-2.5,0-.7,0-1.2.2-1.7.4-.8.4-1.5,1.1-1.9,1.9-.2.5-.4,1-.4,1.7,0,.6,0,1.4,0,2.5v3.1c0,1.9,1.5,3.5,3.5,3.5h.4c.2,0,.3.2.2.4-.5,1.3,1,2.4,2.1,1.6l1.9-1.4h0c.1-.1.2-.2.3-.3.2-.2.4-.4.4-.7h0s0,0,0,0Z"/>
    </g>
  </g>
</svg>