<?xml version="1.0" encoding="UTF-8"?><svg id="Capa_1" xmlns="http://www.w3.org/2000/svg" viewBox="0 0 22 22"><defs><style>.cls-1{fill-rule:evenodd;}.cls-1,.cls-2{fill:#02372f;stroke:#02372f;stroke-miterlimit:10;stroke-width:.5px;}</style></defs><path class="cls-2" d="M17.65,6.65c-.76,0-1.4.49-1.64,1.17h-3.02c-.32,0-.58.26-.58.58s.26.58.58.58h3.02c.24.68.88,1.17,1.64,1.17.96,0,1.75-.78,1.75-1.75s-.78-1.75-1.75-1.75ZM17.65,8.98c-.32,0-.58-.26-.58-.58s.26-.58.58-.58.58.26.58.58-.26.58-.58.58Z"/><path class="cls-2" d="M15.96,11.86l-.76-1.02c-.11-.15-.28-.23-.47-.23h-1.75c-.32,0-.58.26-.58.58s.26.58.58.58h1.46l.59.78c-.19.28-.29.61-.29.97,0,.96.78,1.75,1.75,1.75s1.75-.78,1.75-1.75c0-1.13-1.09-2.03-2.26-1.66ZM16.48,14.1c-.32,0-.58-.26-.58-.58s.26-.58.58-.58.58.26.58.58-.26.58-.58.58Z"/><path class="cls-2" d="M14.18,15.79l-.64-1.94c-.1-.3-.43-.47-.74-.37-.31.1-.47.43-.37.74l.65,1.94c-.41.32-.68.81-.68,1.37,0,.96.78,1.75,1.75,1.75s1.75-.78,1.75-1.75-.77-1.73-1.72-1.74h0ZM14.15,18.12c-.32,0-.58-.26-.58-.58s.26-.58.58-.58.58.26.58.58-.26.58-.58.58Z"/><path class="cls-2" d="M12.99,5.11c-.32,0-.58.26-.58.58s.26.58.58.58h.58c.22,0,.42-.12.52-.32l.43-.86c1.1.14,1.96-.73,1.96-1.73s-.78-1.75-1.75-1.75-1.75.78-1.75,1.75c0,.47.19.9.49,1.21l-.27.54h-.22ZM14.73,2.78c.32,0,.58.26.58.58s-.26.58-.58.58-.58-.26-.58-.58.26-.58.58-.58Z"/><path class="cls-1" d="M11.53,17.75c0-.32-.33-.54-.62-.41s-.55.27-.81.45l-1.99,1.42c-.21.15-.49-.07-.4-.31.36-.91-.31-1.9-1.28-1.9h-.37c-1.29,0-2.34-1.05-2.34-2.34v-3.08c0-1.05,0-1.81.05-2.41.05-.59.14-.97.3-1.27.3-.6.79-1.08,1.39-1.39h0c.31-.16.69-.25,1.27-.3.59-.05,1.35-.05,2.41-.05h1.9c.28,0,.5-.22.5-.5,0,0,0,0,0-.01,0-.34-.27-.61-.61-.61h-1.81c-1.02,0-1.83,0-2.47.05-.66.05-1.2.16-1.69.42-.81.41-1.46,1.07-1.88,1.88-.25.49-.36,1.03-.42,1.69-.05.65-.05,1.45-.05,2.47v3.1c0,1.91,1.55,3.46,3.46,3.46h.37c.19,0,.31.19.24.36-.51,1.28.96,2.44,2.09,1.64l1.95-1.39.04-.03c.12-.08.23-.16.33-.25.21-.18.45-.37.45-.66,0-.01,0-.02,0-.03Z"/></svg>